<?xml version="1.0" encoding="UTF-8" standalone="no"?><svg xmlns="http://www.w3.org/2000/svg" xmlns:xlink="http://www.w3.org/1999/xlink" contentStyleType="text/css" height="924px" preserveAspectRatio="none" style="width:984px;height:924px;" version="1.1" viewBox="0 0 984 924" width="984px" zoomAndPan="magnify"><defs/><g><!--class StreamLoader--><a href="../com/adform/streamloader/StreamLoader.html" target="_top" title="StreamLoader" xlink:actuate="onRequest" xlink:href="../com/adform/streamloader/StreamLoader.html" xlink:show="new" xlink:title="StreamLoader" xlink:type="simple"><g id="elem_StreamLoader"><rect codeLine="5" fill="#F1F1F1" height="72.5938" id="StreamLoader" rx="2.5" ry="2.5" style="stroke:#181818;stroke-width:0.5;" width="128" x="171.5" y="7"/><ellipse cx="186.5" cy="23" fill="#ADD1B2" rx="11" ry="11" style="stroke:#181818;stroke-width:1.0;"/><path d="M189.4688,28.6406 Q188.8906,28.9375 188.25,29.0781 Q187.6094,29.2344 186.9063,29.2344 Q184.4063,29.2344 183.0781,27.5938 Q181.7656,25.9375 181.7656,22.8125 Q181.7656,19.6875 183.0781,18.0313 Q184.4063,16.375 186.9063,16.375 Q187.6094,16.375 188.25,16.5313 Q188.9063,16.6875 189.4688,16.9844 L189.4688,19.7031 Q188.8438,19.125 188.25,18.8594 Q187.6563,18.5781 187.0313,18.5781 Q185.6875,18.5781 185,19.6563 Q184.3125,20.7188 184.3125,22.8125 Q184.3125,24.9063 185,25.9844 Q185.6875,27.0469 187.0313,27.0469 Q187.6563,27.0469 188.25,26.7813 Q188.8438,26.5 189.4688,25.9219 L189.4688,28.6406 Z " fill="#000000"/><text fill="#000000" font-family="sans-serif" font-size="14" lengthAdjust="spacing" textLength="96" x="200.5" y="27.8467">StreamLoader</text><line style="stroke:#181818;stroke-width:0.5;" x1="172.5" x2="298.5" y1="39" y2="39"/><text fill="#000000" font-family="sans-serif" font-size="14" lengthAdjust="spacing" textLength="41" x="177.5" y="55.9951">start()</text><text fill="#000000" font-family="sans-serif" font-size="14" lengthAdjust="spacing" textLength="41" x="177.5" y="72.292">stop()</text></g></a><!--class KafkaSource--><a href="../com/adform/streamloader/source/KafkaSource.html" target="_top" title="KafkaSource" xlink:actuate="onRequest" xlink:href="../com/adform/streamloader/source/KafkaSource.html" xlink:show="new" xlink:title="KafkaSource" xlink:type="simple"><g id="elem_KafkaSource"><rect codeLine="10" fill="#F1F1F1" height="56.2969" id="KafkaSource" rx="2.5" ry="2.5" style="stroke:#181818;stroke-width:0.5;" width="149" x="7" y="181"/><ellipse cx="35.95" cy="197" fill="#ADD1B2" rx="11" ry="11" style="stroke:#181818;stroke-width:1.0;"/><path d="M38.9188,202.6406 Q38.3406,202.9375 37.7,203.0781 Q37.0594,203.2344 36.3563,203.2344 Q33.8563,203.2344 32.5281,201.5938 Q31.2156,199.9375 31.2156,196.8125 Q31.2156,193.6875 32.5281,192.0313 Q33.8563,190.375 36.3563,190.375 Q37.0594,190.375 37.7,190.5313 Q38.3563,190.6875 38.9188,190.9844 L38.9188,193.7031 Q38.2938,193.125 37.7,192.8594 Q37.1063,192.5781 36.4813,192.5781 Q35.1375,192.5781 34.45,193.6563 Q33.7625,194.7188 33.7625,196.8125 Q33.7625,198.9063 34.45,199.9844 Q35.1375,201.0469 36.4813,201.0469 Q37.1063,201.0469 37.7,200.7813 Q38.2938,200.5 38.9188,199.9219 L38.9188,202.6406 Z " fill="#000000"/><text fill="#000000" font-family="sans-serif" font-size="14" lengthAdjust="spacing" textLength="86" x="53.05" y="201.8467">KafkaSource</text><line style="stroke:#181818;stroke-width:0.5;" x1="8" x2="155" y1="213" y2="213"/><text fill="#000000" font-family="sans-serif" font-size="14" lengthAdjust="spacing" textLength="137" x="13" y="229.9951">poll(): Kafka records</text></g></a><!--class Sink--><a href="../com/adform/streamloader/sink/Sink.html" target="_top" title="Sink" xlink:actuate="onRequest" xlink:href="../com/adform/streamloader/sink/Sink.html" xlink:show="new" xlink:title="Sink" xlink:type="simple"><g id="elem_Sink"><rect codeLine="17" fill="#F1F1F1" height="137.7813" id="Sink" rx="2.5" ry="2.5" style="stroke:#181818;stroke-width:0.5;" width="399" x="191" y="140"/><ellipse cx="371.75" cy="156" fill="#B4A7E5" rx="11" ry="11" style="stroke:#181818;stroke-width:1.0;"/><path d="M367.6719,151.7656 L367.6719,149.6094 L375.0625,149.6094 L375.0625,151.7656 L372.5938,151.7656 L372.5938,159.8438 L375.0625,159.8438 L375.0625,162 L367.6719,162 L367.6719,159.8438 L370.1406,159.8438 L370.1406,151.7656 L367.6719,151.7656 Z " fill="#000000"/><text fill="#000000" font-family="sans-serif" font-size="14" font-style="italic" lengthAdjust="spacing" textLength="29" x="392.25" y="160.8467">Sink</text><line style="stroke:#181818;stroke-width:0.5;" x1="192" x2="589" y1="172" y2="172"/><text fill="#000000" font-family="sans-serif" font-size="14" lengthAdjust="spacing" textLength="154" x="197" y="188.9951">initialize(kafkaContext)</text><text fill="#000000" font-family="sans-serif" font-size="14" lengthAdjust="spacing" textLength="385" x="197" y="205.292">assignPartitions(partitions): committed stream positions</text><text fill="#000000" font-family="sans-serif" font-size="14" lengthAdjust="spacing" textLength="387" x="197" y="221.5889">revokePartitions(partitions): committed stream positions</text><text fill="#000000" font-family="sans-serif" font-size="14" lengthAdjust="spacing" textLength="88" x="197" y="237.8857">write(record)</text><text fill="#000000" font-family="sans-serif" font-size="14" lengthAdjust="spacing" textLength="77" x="197" y="254.1826">heartbeat()</text><text fill="#000000" font-family="sans-serif" font-size="14" lengthAdjust="spacing" textLength="47" x="197" y="270.4795">close()</text></g></a><!--class RecordBatchingSink--><a href="../com/adform/streamloader/sink/batch/RecordBatchingSink.html" target="_top" title="RecordBatchingSink" xlink:actuate="onRequest" xlink:href="../com/adform/streamloader/sink/batch/RecordBatchingSink.html" xlink:show="new" xlink:title="RecordBatchingSink" xlink:type="simple"><g id="elem_RecordBatchingSink"><rect codeLine="28" fill="#F1F1F1" height="56.2969" id="RecordBatchingSink" rx="2.5" ry="2.5" style="stroke:#181818;stroke-width:0.5;" width="307" x="237" y="338"/><ellipse cx="316.25" cy="354" fill="#ADD1B2" rx="11" ry="11" style="stroke:#181818;stroke-width:1.0;"/><path d="M319.2188,359.6406 Q318.6406,359.9375 318,360.0781 Q317.3594,360.2344 316.6563,360.2344 Q314.1563,360.2344 312.8281,358.5938 Q311.5156,356.9375 311.5156,353.8125 Q311.5156,350.6875 312.8281,349.0313 Q314.1563,347.375 316.6563,347.375 Q317.3594,347.375 318,347.5313 Q318.6563,347.6875 319.2188,347.9844 L319.2188,350.7031 Q318.5938,350.125 318,349.8594 Q317.4063,349.5781 316.7813,349.5781 Q315.4375,349.5781 314.75,350.6563 Q314.0625,351.7188 314.0625,353.8125 Q314.0625,355.9063 314.75,356.9844 Q315.4375,358.0469 316.7813,358.0469 Q317.4063,358.0469 318,357.7813 Q318.5938,357.5 319.2188,356.9219 L319.2188,359.6406 Z " fill="#000000"/><text fill="#000000" font-family="sans-serif" font-size="14" lengthAdjust="spacing" textLength="140" x="336.75" y="358.8467">RecordBatchingSink</text><line style="stroke:#181818;stroke-width:0.5;" x1="238" x2="543" y1="370" y2="370"/><text fill="#000000" font-family="sans-serif" font-size="14" lengthAdjust="spacing" textLength="295" x="243" y="386.9951">partitionGrouping: TopicPartition =&gt; String</text></g></a><!--class RecordBatcher--><a href="../com/adform/streamloader/sink/batch/RecordBatcher.html" target="_top" title="RecordBatcher" xlink:actuate="onRequest" xlink:href="../com/adform/streamloader/sink/batch/RecordBatcher.html" xlink:show="new" xlink:title="RecordBatcher" xlink:type="simple"><g id="elem_RecordBatcher"><rect codeLine="32" fill="#F1F1F1" height="56.2969" id="RecordBatcher" rx="2.5" ry="2.5" style="stroke:#181818;stroke-width:0.5;" width="139" x="182" y="478.5"/><ellipse cx="198.35" cy="494.5" fill="#B4A7E5" rx="11" ry="11" style="stroke:#181818;stroke-width:1.0;"/><path d="M194.2719,490.2656 L194.2719,488.1094 L201.6625,488.1094 L201.6625,490.2656 L199.1938,490.2656 L199.1938,498.3438 L201.6625,498.3438 L201.6625,500.5 L194.2719,500.5 L194.2719,498.3438 L196.7406,498.3438 L196.7406,490.2656 L194.2719,490.2656 Z " fill="#000000"/><text fill="#000000" font-family="sans-serif" font-size="14" font-style="italic" lengthAdjust="spacing" textLength="104" x="212.65" y="499.3467">RecordBatcher</text><line style="stroke:#181818;stroke-width:0.5;" x1="183" x2="320" y1="510.5" y2="510.5"/><text fill="#000000" font-family="sans-serif" font-size="14" lengthAdjust="spacing" textLength="127" x="188" y="527.4951">newBatchBuilder()</text></g></a><!--class RecordBatchStorage--><a href="../com/adform/streamloader/sink/batch/storage/RecordBatchStorage.html" target="_top" title="RecordBatchStorage" xlink:actuate="onRequest" xlink:href="../com/adform/streamloader/sink/batch/storage/RecordBatchStorage.html" xlink:show="new" xlink:title="RecordBatchStorage" xlink:type="simple"><g id="elem_RecordBatchStorage"><rect codeLine="36" fill="#F1F1F1" height="105.1875" id="RecordBatchStorage" rx="2.5" ry="2.5" style="stroke:#181818;stroke-width:0.5;" width="347" x="356" y="454"/><ellipse cx="453.25" cy="470" fill="#B4A7E5" rx="11" ry="11" style="stroke:#181818;stroke-width:1.0;"/><path d="M449.1719,465.7656 L449.1719,463.6094 L456.5625,463.6094 L456.5625,465.7656 L454.0938,465.7656 L454.0938,473.8438 L456.5625,473.8438 L456.5625,476 L449.1719,476 L449.1719,473.8438 L451.6406,473.8438 L451.6406,465.7656 L449.1719,465.7656 Z " fill="#000000"/><text fill="#000000" font-family="sans-serif" font-size="14" font-style="italic" lengthAdjust="spacing" textLength="144" x="473.75" y="474.8467">RecordBatchStorage</text><line style="stroke:#181818;stroke-width:0.5;" x1="357" x2="702" y1="486" y2="486"/><text fill="#000000" font-family="sans-serif" font-size="14" lengthAdjust="spacing" textLength="154" x="362" y="502.9951">initialize(kafkaContext)</text><text fill="#000000" font-family="sans-serif" font-size="14" lengthAdjust="spacing" textLength="62" x="362" y="519.292">recover()</text><text fill="#000000" font-family="sans-serif" font-size="14" lengthAdjust="spacing" textLength="195" x="362" y="535.5889">commitBatch(batch, offsets)</text><text fill="#000000" font-family="sans-serif" font-size="14" lengthAdjust="spacing" textLength="335" x="362" y="551.8857">committedPositions(partitions): stream positions</text></g></a><!--class InDataOffsetRecordBatchStorage--><a href="../com/adform/streamloader/sink/batch/storage/InDataOffsetRecordBatchStorage.html" target="_top" title="InDataOffsetRecordBatchStorage" xlink:actuate="onRequest" xlink:href="../com/adform/streamloader/sink/batch/storage/InDataOffsetRecordBatchStorage.html" xlink:show="new" xlink:title="InDataOffsetRecordBatchStorage" xlink:type="simple"><g id="elem_InDataOffsetRecordBatchStorage"><rect codeLine="49" fill="#F1F1F1" height="56.2969" id="InDataOffsetRecordBatchStorage" rx="2.5" ry="2.5" style="stroke:#181818;stroke-width:0.5;" width="261" x="382" y="627.5"/><ellipse cx="397" cy="643.5" fill="#A9DCDF" rx="11" ry="11" style="stroke:#181818;stroke-width:1.0;"/><path d="M397.1094,638.8438 L395.9531,643.9219 L398.2813,643.9219 L397.1094,638.8438 Z M395.625,636.6094 L398.6094,636.6094 L401.9688,649 L399.5156,649 L398.75,645.9375 L395.4688,645.9375 L394.7188,649 L392.2813,649 L395.625,636.6094 Z " fill="#000000"/><text fill="#000000" font-family="sans-serif" font-size="14" font-style="italic" lengthAdjust="spacing" textLength="229" x="411" y="648.3467">InDataOffsetRecordBatchStorage</text><line style="stroke:#181818;stroke-width:0.5;" x1="383" x2="642" y1="659.5" y2="659.5"/><text fill="#000000" font-family="sans-serif" font-size="14" lengthAdjust="spacing" textLength="125" x="388" y="676.4951">storeBatch(batch)</text></g></a><!--class TwoPhaseCommitRecordBatchStorage--><a href="../com/adform/streamloader/sink/batch/storage/TwoPhaseCommitRecordBatchStorage.html" target="_top" title="TwoPhaseCommitRecordBatchStorage" xlink:actuate="onRequest" xlink:href="../com/adform/streamloader/sink/batch/storage/TwoPhaseCommitRecordBatchStorage.html" xlink:show="new" xlink:title="TwoPhaseCommitRecordBatchStorage" xlink:type="simple"><g id="elem_TwoPhaseCommitRecordBatchStorage"><rect codeLine="53" fill="#F1F1F1" height="72.5938" id="TwoPhaseCommitRecordBatchStorage" rx="2.5" ry="2.5" style="stroke:#181818;stroke-width:0.5;" width="299" x="678" y="619"/><ellipse cx="693" cy="635" fill="#A9DCDF" rx="11" ry="11" style="stroke:#181818;stroke-width:1.0;"/><path d="M693.1094,630.3438 L691.9531,635.4219 L694.2813,635.4219 L693.1094,630.3438 Z M691.625,628.1094 L694.6094,628.1094 L697.9688,640.5 L695.5156,640.5 L694.75,637.4375 L691.4688,637.4375 L690.7188,640.5 L688.2813,640.5 L691.625,628.1094 Z " fill="#000000"/><text fill="#000000" font-family="sans-serif" font-size="14" font-style="italic" lengthAdjust="spacing" textLength="267" x="707" y="639.8467">TwoPhaseCommitRecordBatchStorage</text><line style="stroke:#181818;stroke-width:0.5;" x1="679" x2="976" y1="651" y2="651"/><text fill="#000000" font-family="sans-serif" font-size="14" lengthAdjust="spacing" textLength="188" x="684" y="667.9951">stageBatch(batch): staging</text><text fill="#000000" font-family="sans-serif" font-size="14" lengthAdjust="spacing" textLength="137" x="684" y="684.292">storeBatch(staging)</text></g></a><!--class FileRecordBatcher--><a href="../com/adform/streamloader/sink/file/FileRecordBatcher.html" target="_top" title="FileRecordBatcher" xlink:actuate="onRequest" xlink:href="../com/adform/streamloader/sink/file/FileRecordBatcher.html" xlink:show="new" xlink:title="FileRecordBatcher" xlink:type="simple"><g id="elem_FileRecordBatcher"><rect codeLine="58" fill="#F1F1F1" height="32" id="FileRecordBatcher" rx="2.5" ry="2.5" style="stroke:#181818;stroke-width:0.5;" width="159" x="172" y="639.5"/><ellipse cx="187" cy="655.5" fill="#ADD1B2" rx="11" ry="11" style="stroke:#181818;stroke-width:1.0;"/><path d="M189.9688,661.1406 Q189.3906,661.4375 188.75,661.5781 Q188.1094,661.7344 187.4063,661.7344 Q184.9063,661.7344 183.5781,660.0938 Q182.2656,658.4375 182.2656,655.3125 Q182.2656,652.1875 183.5781,650.5313 Q184.9063,648.875 187.4063,648.875 Q188.1094,648.875 188.75,649.0313 Q189.4063,649.1875 189.9688,649.4844 L189.9688,652.2031 Q189.3438,651.625 188.75,651.3594 Q188.1563,651.0781 187.5313,651.0781 Q186.1875,651.0781 185.5,652.1563 Q184.8125,653.2188 184.8125,655.3125 Q184.8125,657.4063 185.5,658.4844 Q186.1875,659.5469 187.5313,659.5469 Q188.1563,659.5469 188.75,659.2813 Q189.3438,659 189.9688,658.4219 L189.9688,661.1406 Z " fill="#000000"/><text fill="#000000" font-family="sans-serif" font-size="14" lengthAdjust="spacing" textLength="127" x="201" y="660.3467">FileRecordBatcher</text></g></a><!--class FileBuilder--><a href="../com/adform/streamloader/sink/file/FileBuilder.html" target="_top" title="FileBuilder" xlink:actuate="onRequest" xlink:href="../com/adform/streamloader/sink/file/FileBuilder.html" xlink:show="new" xlink:title="FileBuilder" xlink:type="simple"><g id="elem_FileBuilder"><rect codeLine="63" fill="#F1F1F1" height="72.5938" id="FileBuilder" rx="2.5" ry="2.5" style="stroke:#181818;stroke-width:0.5;" width="143" x="75" y="752"/><ellipse cx="108" cy="768" fill="#B4A7E5" rx="11" ry="11" style="stroke:#181818;stroke-width:1.0;"/><path d="M103.9219,763.7656 L103.9219,761.6094 L111.3125,761.6094 L111.3125,763.7656 L108.8438,763.7656 L108.8438,771.8438 L111.3125,771.8438 L111.3125,774 L103.9219,774 L103.9219,771.8438 L106.3906,771.8438 L106.3906,763.7656 L103.9219,763.7656 Z " fill="#000000"/><text fill="#000000" font-family="sans-serif" font-size="14" font-style="italic" lengthAdjust="spacing" textLength="71" x="126" y="772.8467">FileBuilder</text><line style="stroke:#181818;stroke-width:0.5;" x1="76" x2="217" y1="784" y2="784"/><text fill="#000000" font-family="sans-serif" font-size="14" lengthAdjust="spacing" textLength="88" x="81" y="800.9951">write(record)</text><text fill="#000000" font-family="sans-serif" font-size="14" lengthAdjust="spacing" textLength="131" x="81" y="817.292">build(): Option[File]</text></g></a><!--class CsvFileBuilder--><a href="../com/adform/streamloader/sink/encoding/csv/CsvFileBuilder.html" target="_top" title="CsvFileBuilder" xlink:actuate="onRequest" xlink:href="../com/adform/streamloader/sink/encoding/csv/CsvFileBuilder.html" xlink:show="new" xlink:title="CsvFileBuilder" xlink:type="simple"><g id="elem_CsvFileBuilder"><rect codeLine="68" fill="#F1F1F1" height="32" id="CsvFileBuilder" rx="2.5" ry="2.5" style="stroke:#181818;stroke-width:0.5;" width="128" x="82.5" y="885"/><ellipse cx="97.5" cy="901" fill="#ADD1B2" rx="11" ry="11" style="stroke:#181818;stroke-width:1.0;"/><path d="M100.4688,906.6406 Q99.8906,906.9375 99.25,907.0781 Q98.6094,907.2344 97.9063,907.2344 Q95.4063,907.2344 94.0781,905.5938 Q92.7656,903.9375 92.7656,900.8125 Q92.7656,897.6875 94.0781,896.0313 Q95.4063,894.375 97.9063,894.375 Q98.6094,894.375 99.25,894.5313 Q99.9063,894.6875 100.4688,894.9844 L100.4688,897.7031 Q99.8438,897.125 99.25,896.8594 Q98.6563,896.5781 98.0313,896.5781 Q96.6875,896.5781 96,897.6563 Q95.3125,898.7188 95.3125,900.8125 Q95.3125,902.9063 96,903.9844 Q96.6875,905.0469 98.0313,905.0469 Q98.6563,905.0469 99.25,904.7813 Q99.8438,904.5 100.4688,903.9219 L100.4688,906.6406 Z " fill="#000000"/><text fill="#000000" font-family="sans-serif" font-size="14" lengthAdjust="spacing" textLength="96" x="111.5" y="905.8467">CsvFileBuilder</text></g></a><!--class RecordFormatter--><a href="../com/adform/streamloader/sink/batch/RecordFormatter.html" target="_top" title="RecordFormatter" xlink:actuate="onRequest" xlink:href="../com/adform/streamloader/sink/batch/RecordFormatter.html" xlink:show="new" xlink:title="RecordFormatter" xlink:type="simple"><g id="elem_RecordFormatter"><rect codeLine="75" fill="#F1F1F1" height="56.2969" id="RecordFormatter" rx="2.5" ry="2.5" style="stroke:#181818;stroke-width:0.5;" width="207" x="253" y="760.5"/><ellipse cx="294.1" cy="776.5" fill="#ADD1B2" rx="11" ry="11" style="stroke:#181818;stroke-width:1.0;"/><path d="M297.0688,782.1406 Q296.4906,782.4375 295.85,782.5781 Q295.2094,782.7344 294.5063,782.7344 Q292.0063,782.7344 290.6781,781.0938 Q289.3656,779.4375 289.3656,776.3125 Q289.3656,773.1875 290.6781,771.5313 Q292.0063,769.875 294.5063,769.875 Q295.2094,769.875 295.85,770.0313 Q296.5063,770.1875 297.0688,770.4844 L297.0688,773.2031 Q296.4438,772.625 295.85,772.3594 Q295.2563,772.0781 294.6313,772.0781 Q293.2875,772.0781 292.6,773.1563 Q291.9125,774.2188 291.9125,776.3125 Q291.9125,778.4063 292.6,779.4844 Q293.2875,780.5469 294.6313,780.5469 Q295.2563,780.5469 295.85,780.2813 Q296.4438,780 297.0688,779.4219 L297.0688,782.1406 Z " fill="#000000"/><text fill="#000000" font-family="sans-serif" font-size="14" lengthAdjust="spacing" textLength="117" x="313.9" y="781.3467">RecordFormatter</text><line style="stroke:#181818;stroke-width:0.5;" x1="254" x2="459" y1="792.5" y2="792.5"/><text fill="#000000" font-family="sans-serif" font-size="14" lengthAdjust="spacing" textLength="195" x="259" y="809.4951">format(record): Seq[Record]</text></g></a><!--reverse link StreamLoader to KafkaSource--><g id="link_StreamLoader_KafkaSource"><path codeLine="14" d="M192.68,89.96 C165.18,119.16 130.37,156.12 107.1,180.82 " fill="none" id="StreamLoader-backto-KafkaSource" style="stroke:#181818;stroke-width:1.0;"/><polygon fill="#181818" points="201.7,80.38,194.6738,82.0024,193.469,89.1122,200.4953,87.4898,201.7,80.38" style="stroke:#181818;stroke-width:1.0;"/></g><!--reverse link StreamLoader to Sink--><g id="link_StreamLoader_Sink"><path codeLine="15" d="M278.8,90.18 C293.42,105.6 310.07,123.16 325.97,139.94 " fill="none" id="StreamLoader-backto-Sink" style="stroke:#181818;stroke-width:1.0;"/><polygon fill="#181818" points="269.52,80.38,270.7525,87.485,277.785,89.08,276.5525,81.975,269.52,80.38" style="stroke:#181818;stroke-width:1.0;"/></g><!--reverse link Sink to RecordBatchingSink--><g id="link_Sink_RecordBatchingSink"><path codeLine="26" d="M390.5,298.61 C390.5,312.79 390.5,326.46 390.5,337.67 " fill="none" id="Sink-backto-RecordBatchingSink" style="stroke:#181818;stroke-width:1.0;"/><polygon fill="none" points="383.5,298.44,390.5,278.44,397.5,298.44,383.5,298.44" style="stroke:#181818;stroke-width:1.0;"/></g><!--reverse link RecordBatchingSink to RecordBatcher--><g id="link_RecordBatchingSink_RecordBatcher"><path codeLine="43" d="M354.08,403.29 C330.59,426.69 300.53,456.64 279.04,478.06 " fill="none" id="RecordBatchingSink-backto-RecordBatcher" style="stroke:#181818;stroke-width:1.0;"/><polygon fill="#181818" points="363.37,394.03,356.2967,395.4332,354.8715,402.5021,361.9448,401.0989,363.37,394.03" style="stroke:#181818;stroke-width:1.0;"/></g><!--reverse link RecordBatchingSink to RecordBatchStorage--><g id="link_RecordBatchingSink_RecordBatchStorage"><path codeLine="44" d="M426.88,403.25 C442.39,418.71 460.78,437.03 477.67,453.86 " fill="none" id="RecordBatchingSink-backto-RecordBatchStorage" style="stroke:#181818;stroke-width:1.0;"/><polygon fill="#181818" points="417.63,394.03,419.0552,401.0989,426.1285,402.5021,424.7033,395.4332,417.63,394.03" style="stroke:#181818;stroke-width:1.0;"/></g><!--reverse link RecordBatchStorage to InDataOffsetRecordBatchStorage--><g id="link_RecordBatchStorage_InDataOffsetRecordBatchStorage"><path codeLine="46" d="M521.21,579.23 C519.22,596.42 517.21,613.75 515.63,627.43 " fill="none" id="RecordBatchStorage-backto-InDataOffsetRecordBatchStorage" style="stroke:#181818;stroke-width:1.0;"/><polygon fill="none" points="514.26,578.39,523.51,559.33,528.16,580,514.26,578.39" style="stroke:#181818;stroke-width:1.0;"/></g><!--reverse link RecordBatchStorage to TwoPhaseCommitRecordBatchStorage--><g id="link_RecordBatchStorage_TwoPhaseCommitRecordBatchStorage"><path codeLine="47" d="M652.26,568.06 C687.34,585.36 724.42,603.65 755.39,618.93 " fill="none" id="RecordBatchStorage-backto-TwoPhaseCommitRecordBatchStorage" style="stroke:#181818;stroke-width:1.0;"/><polygon fill="none" points="648.98,574.25,634.14,559.12,655.18,561.69,648.98,574.25" style="stroke:#181818;stroke-width:1.0;"/></g><!--reverse link RecordBatcher to FileRecordBatcher--><g id="link_RecordBatcher_FileRecordBatcher"><path codeLine="61" d="M251.5,555.11 C251.5,584.32 251.5,619.78 251.5,639.47 " fill="none" id="RecordBatcher-backto-FileRecordBatcher" style="stroke:#181818;stroke-width:1.0;"/><polygon fill="none" points="244.5,554.81,251.5,534.81,258.5,554.81,244.5,554.81" style="stroke:#181818;stroke-width:1.0;"/></g><!--reverse link FileBuilder to CsvFileBuilder--><g id="link_FileBuilder_CsvFileBuilder"><path codeLine="70" d="M146.5,845.29 C146.5,859.86 146.5,874.39 146.5,884.81 " fill="none" id="FileBuilder-backto-CsvFileBuilder" style="stroke:#181818;stroke-width:1.0;"/><polygon fill="none" points="139.5,845.07,146.5,825.07,153.5,845.07,139.5,845.07" style="stroke:#181818;stroke-width:1.0;"/></g><!--reverse link FileRecordBatcher to FileBuilder--><g id="link_FileRecordBatcher_FileBuilder"><path codeLine="72" d="M231.32,681.68 C215.32,701.63 192.79,729.75 174.96,751.99 " fill="none" id="FileRecordBatcher-backto-FileBuilder" style="stroke:#181818;stroke-width:1.0;"/><polygon fill="#181818" points="239.46,671.53,232.5865,673.7105,231.9556,680.894,238.8291,678.7135,239.46,671.53" style="stroke:#181818;stroke-width:1.0;"/></g><!--reverse link FileRecordBatcher to RecordFormatter--><g id="link_FileRecordBatcher_RecordFormatter"><path codeLine="73" d="M271.68,681.67 C289.76,704.24 316.22,737.24 334.76,760.38 " fill="none" id="FileRecordBatcher-backto-RecordFormatter" style="stroke:#181818;stroke-width:1.0;"/><polygon fill="#181818" points="263.54,671.53,264.1709,678.7135,271.0444,680.894,270.4135,673.7105,263.54,671.53" style="stroke:#181818;stroke-width:1.0;"/></g><!--SRC=[dLN1Zfim4Btp5JwoKJVSexQ7JRLLrKeRDNkBSZ0m91PWKzj9scxttpksCS4BJK9FmCoRcJTlnaQLZ3TKqfgaD2jtKXnulXILa4HBoXMwWEieshCS2DID_aLgg5EGAegoYYf5rbe2hRy9ceCacyrydcIYJcXU25adoZehwqpwoFbUrzLBt_AwtPANY2XDfOxlp8jeyFdgwtobHKdNuY0pk5n6MKpImxjYFKDRYpIYgkAxXSjD96H2vigK39gQtT_tgm-TQyRBA69SWomeqZFVLpWY8Z6mLWTyyvmOPvhHYls6k3H5bmBp_jIe244Ps8wlK2242AxYfdl59h1MpRI6dBXIs9roJWoLS1Gb_5VeIJ8DiHF7iDW3XgP0xPH8LWa5RawsxVT_K93l5ln0TRPdVEVaSLCSUcuGAZNmP1Zgn1lQk_7w7Z_ZMZVeN91dqR2iau5y-6Zs5ps6_tc0lPJNbdgSe5_mmEHfSJXPoyE1LPZ2YJTQVAs5f3kucO5o-6IOOa2djT-mTMRoHqkJj8jY4yIsv3iYYaA1LcSlhj7Ahq-uPeFbmhv75c8MRX386q1jEq4-hvvToI_y4zNqoP8TYVjNsFD9hFPKmTAsDbQGfjWMpJHn2twvpkH9NaxdfdePuoTiCa9lSdRhtf2_rkra-jSIkWQkeSuju4U_XOKrcUCRzDSQUp-FHrR1r4DTO4mo27IC1sP7CTndh69tQ03kdtRZR2-2APpQa3ERrk2bUdjffyPjVdLFZJbw6nEoFUkpLCTfH81d8aUDaqmTap3QSGfjI2kA-XMiC2760KBzPgry7ZAES9P7P4hnzf7XlwOpJxp7kxZ-rTaPlSw5DNYX5sGDFpOEQjJz2m00]--></g></svg>