<svg xmlns="http://www.w3.org/2000/svg" xmlns:xlink="http://www.w3.org/1999/xlink" contentStyleType="text/css" height="924px" preserveAspectRatio="none" style="width:915px;height:924px;" version="1.1" viewBox="0 0 915 924" width="915px" zoomAndPan="magnify"><defs/><g><!--class StreamLoader--><a href="../com/adform/streamloader/StreamLoader.html" target="_top" title="StreamLoader" xlink:actuate="onRequest" xlink:href="../com/adform/streamloader/StreamLoader.html" xlink:show="new" xlink:title="StreamLoader" xlink:type="simple"><g id="elem_StreamLoader"><rect codeLine="5" fill="#F1F1F1" height="72.5938" id="StreamLoader" rx="2.5" ry="2.5" style="stroke:#181818;stroke-width:0.5;" width="131.1621" x="176.5" y="7"/><ellipse cx="191.5" cy="23" fill="#ADD1B2" rx="11" ry="11" style="stroke:#181818;stroke-width:1.0;"/><path d="M194.4688,28.6406 Q193.8906,28.9375 193.25,29.0781 Q192.6094,29.2344 191.9063,29.2344 Q189.4063,29.2344 188.0781,27.5938 Q186.7656,25.9375 186.7656,22.8125 Q186.7656,19.6875 188.0781,18.0313 Q189.4063,16.375 191.9063,16.375 Q192.6094,16.375 193.25,16.5313 Q193.9063,16.6875 194.4688,16.9844 L194.4688,19.7031 Q193.8438,19.125 193.25,18.8594 Q192.6563,18.5781 192.0313,18.5781 Q190.6875,18.5781 190,19.6563 Q189.3125,20.7188 189.3125,22.8125 Q189.3125,24.9063 190,25.9844 Q190.6875,27.0469 192.0313,27.0469 Q192.6563,27.0469 193.25,26.7813 Q193.8438,26.5 194.4688,25.9219 L194.4688,28.6406 Z " fill="#000000"/><text fill="#000000" font-family="sans-serif" font-size="14" lengthAdjust="spacing" textLength="99.1621" x="205.5" y="27.8467">StreamLoader</text><line style="stroke:#181818;stroke-width:0.5;" x1="177.5" x2="306.6621" y1="39" y2="39"/><text fill="#000000" font-family="sans-serif" font-size="14" lengthAdjust="spacing" textLength="43.5313" x="182.5" y="55.9951">start()</text><text fill="#000000" font-family="sans-serif" font-size="14" lengthAdjust="spacing" textLength="41.1592" x="182.5" y="72.292">stop()</text></g></a><!--class KafkaSource--><a href="../com/adform/streamloader/source/KafkaSource.html" target="_top" title="KafkaSource" xlink:actuate="onRequest" xlink:href="../com/adform/streamloader/source/KafkaSource.html" xlink:show="new" xlink:title="KafkaSource" xlink:type="simple"><g id="elem_KafkaSource"><rect codeLine="10" fill="#F1F1F1" height="56.2969" id="KafkaSource" rx="2.5" ry="2.5" style="stroke:#181818;stroke-width:0.5;" width="153.7158" x="7" y="181"/><ellipse cx="37.2771" cy="197" fill="#ADD1B2" rx="11" ry="11" style="stroke:#181818;stroke-width:1.0;"/><path d="M40.2459,202.6406 Q39.6678,202.9375 39.0271,203.0781 Q38.3865,203.2344 37.6834,203.2344 Q35.1834,203.2344 33.8553,201.5938 Q32.5428,199.9375 32.5428,196.8125 Q32.5428,193.6875 33.8553,192.0313 Q35.1834,190.375 37.6834,190.375 Q38.3865,190.375 39.0271,190.5313 Q39.6834,190.6875 40.2459,190.9844 L40.2459,193.7031 Q39.6209,193.125 39.0271,192.8594 Q38.4334,192.5781 37.8084,192.5781 Q36.4646,192.5781 35.7771,193.6563 Q35.0896,194.7188 35.0896,196.8125 Q35.0896,198.9063 35.7771,199.9844 Q36.4646,201.0469 37.8084,201.0469 Q38.4334,201.0469 39.0271,200.7813 Q39.6209,200.5 40.2459,199.9219 L40.2459,202.6406 Z " fill="#000000"/><text fill="#000000" font-family="sans-serif" font-size="14" lengthAdjust="spacing" textLength="87.7666" x="54.6721" y="201.8467">KafkaSource</text><line style="stroke:#181818;stroke-width:0.5;" x1="8" x2="159.7158" y1="213" y2="213"/><text fill="#000000" font-family="sans-serif" font-size="14" lengthAdjust="spacing" textLength="141.7158" x="13" y="229.9951">poll(): Kafka records</text></g></a><!--class Sink--><a href="../com/adform/streamloader/sink/Sink.html" target="_top" title="Sink" xlink:actuate="onRequest" xlink:href="../com/adform/streamloader/sink/Sink.html" xlink:show="new" xlink:title="Sink" xlink:type="simple"><g id="elem_Sink"><rect codeLine="17" fill="#F1F1F1" height="137.7813" id="Sink" rx="2.5" ry="2.5" style="stroke:#181818;stroke-width:0.5;" width="409.9336" x="196" y="140"/><ellipse cx="381.8384" cy="156" fill="#B4A7E5" rx="11" ry="11" style="stroke:#181818;stroke-width:1.0;"/><path d="M377.7603,151.7656 L377.7603,149.6094 L385.1509,149.6094 L385.1509,151.7656 L382.6821,151.7656 L382.6821,159.8438 L385.1509,159.8438 L385.1509,162 L377.7603,162 L377.7603,159.8438 L380.229,159.8438 L380.229,151.7656 L377.7603,151.7656 Z " fill="#000000"/><text fill="#000000" font-family="sans-serif" font-size="14" font-style="italic" lengthAdjust="spacing" textLength="29.7568" x="402.3384" y="160.8467">Sink</text><line style="stroke:#181818;stroke-width:0.5;" x1="197" x2="604.9336" y1="172" y2="172"/><text fill="#000000" font-family="sans-serif" font-size="14" lengthAdjust="spacing" textLength="162.668" x="202" y="188.9951">initialize(kafkaContext)</text><text fill="#000000" font-family="sans-serif" font-size="14" lengthAdjust="spacing" textLength="394.8096" x="202" y="205.292">assignPartitions(partitions): committed stream positions</text><text fill="#000000" font-family="sans-serif" font-size="14" lengthAdjust="spacing" textLength="397.9336" x="202" y="221.5889">revokePartitions(partitions): committed stream positions</text><text fill="#000000" font-family="sans-serif" font-size="14" lengthAdjust="spacing" textLength="91.3965" x="202" y="237.8857">write(record)</text><text fill="#000000" font-family="sans-serif" font-size="14" lengthAdjust="spacing" textLength="79.8027" x="202" y="254.1826">heartbeat()</text><text fill="#000000" font-family="sans-serif" font-size="14" lengthAdjust="spacing" textLength="46.9834" x="202" y="270.4795">close()</text></g></a><!--class RecordBatchingSink--><a href="../com/adform/streamloader/sink/batch/RecordBatchingSink.html" target="_top" title="RecordBatchingSink" xlink:actuate="onRequest" xlink:href="../com/adform/streamloader/sink/batch/RecordBatchingSink.html" xlink:show="new" xlink:title="RecordBatchingSink" xlink:type="simple"><g id="elem_RecordBatchingSink"><rect codeLine="28" fill="#F1F1F1" height="56.2969" id="RecordBatchingSink" rx="2.5" ry="2.5" style="stroke:#181818;stroke-width:0.5;" width="315.8711" x="243" y="338"/><ellipse cx="326.2378" cy="354" fill="#ADD1B2" rx="11" ry="11" style="stroke:#181818;stroke-width:1.0;"/><path d="M329.2065,359.6406 Q328.6284,359.9375 327.9878,360.0781 Q327.3472,360.2344 326.644,360.2344 Q324.144,360.2344 322.8159,358.5938 Q321.5034,356.9375 321.5034,353.8125 Q321.5034,350.6875 322.8159,349.0313 Q324.144,347.375 326.644,347.375 Q327.3472,347.375 327.9878,347.5313 Q328.644,347.6875 329.2065,347.9844 L329.2065,350.7031 Q328.5815,350.125 327.9878,349.8594 Q327.394,349.5781 326.769,349.5781 Q325.4253,349.5781 324.7378,350.6563 Q324.0503,351.7188 324.0503,353.8125 Q324.0503,355.9063 324.7378,356.9844 Q325.4253,358.0469 326.769,358.0469 Q327.394,358.0469 327.9878,357.7813 Q328.5815,357.5 329.2065,356.9219 L329.2065,359.6406 Z " fill="#000000"/><text fill="#000000" font-family="sans-serif" font-size="14" lengthAdjust="spacing" textLength="140.8955" x="346.7378" y="358.8467">RecordBatchingSink</text><line style="stroke:#181818;stroke-width:0.5;" x1="244" x2="557.8711" y1="370" y2="370"/><text fill="#000000" font-family="sans-serif" font-size="14" lengthAdjust="spacing" textLength="303.8711" x="249" y="386.9951">partitionGrouping: TopicPartition =&gt; String</text></g></a><!--class RecordBatcher--><a href="../com/adform/streamloader/sink/batch/RecordBatcher.html" target="_top" title="RecordBatcher" xlink:actuate="onRequest" xlink:href="../com/adform/streamloader/sink/batch/RecordBatcher.html" xlink:show="new" xlink:title="RecordBatcher" xlink:type="simple"><g id="elem_RecordBatcher"><rect codeLine="32" fill="#F1F1F1" height="56.2969" id="RecordBatcher" rx="2.5" ry="2.5" style="stroke:#181818;stroke-width:0.5;" width="141.6162" x="189" y="478.5"/><ellipse cx="206.591" cy="494.5" fill="#B4A7E5" rx="11" ry="11" style="stroke:#181818;stroke-width:1.0;"/><path d="M202.5129,490.2656 L202.5129,488.1094 L209.9035,488.1094 L209.9035,490.2656 L207.4348,490.2656 L207.4348,498.3438 L209.9035,498.3438 L209.9035,500.5 L202.5129,500.5 L202.5129,498.3438 L204.9816,498.3438 L204.9816,490.2656 L202.5129,490.2656 Z " fill="#000000"/><text fill="#000000" font-family="sans-serif" font-size="14" font-style="italic" lengthAdjust="spacing" textLength="103.8584" x="221.1668" y="499.3467">RecordBatcher</text><line style="stroke:#181818;stroke-width:0.5;" x1="190" x2="329.6162" y1="510.5" y2="510.5"/><text fill="#000000" font-family="sans-serif" font-size="14" lengthAdjust="spacing" textLength="129.6162" x="195" y="527.4951">newBatchBuilder()</text></g></a><!--class RecordBatchStorage--><a href="../com/adform/streamloader/sink/batch/storage/RecordBatchStorage.html" target="_top" title="RecordBatchStorage" xlink:actuate="onRequest" xlink:href="../com/adform/streamloader/sink/batch/storage/RecordBatchStorage.html" xlink:show="new" xlink:title="RecordBatchStorage" xlink:type="simple"><g id="elem_RecordBatchStorage"><rect codeLine="36" fill="#F1F1F1" height="105.1875" id="RecordBatchStorage" rx="2.5" ry="2.5" style="stroke:#181818;stroke-width:0.5;" width="353.5781" x="366" y="454"/><ellipse cx="466.4063" cy="470" fill="#B4A7E5" rx="11" ry="11" style="stroke:#181818;stroke-width:1.0;"/><path d="M462.3281,465.7656 L462.3281,463.6094 L469.7188,463.6094 L469.7188,465.7656 L467.25,465.7656 L467.25,473.8438 L469.7188,473.8438 L469.7188,476 L462.3281,476 L462.3281,473.8438 L464.7969,473.8438 L464.7969,465.7656 L462.3281,465.7656 Z " fill="#000000"/><text fill="#000000" font-family="sans-serif" font-size="14" font-style="italic" lengthAdjust="spacing" textLength="144.2656" x="486.9063" y="474.8467">RecordBatchStorage</text><line style="stroke:#181818;stroke-width:0.5;" x1="367" x2="718.5781" y1="486" y2="486"/><text fill="#000000" font-family="sans-serif" font-size="14" lengthAdjust="spacing" textLength="162.668" x="372" y="502.9951">initialize(kafkaContext)</text><text fill="#000000" font-family="sans-serif" font-size="14" lengthAdjust="spacing" textLength="64.21" x="372" y="519.292">recover()</text><text fill="#000000" font-family="sans-serif" font-size="14" lengthAdjust="spacing" textLength="199.623" x="372" y="535.5889">commitBatch(batch, offsets)</text><text fill="#000000" font-family="sans-serif" font-size="14" lengthAdjust="spacing" textLength="341.5781" x="372" y="551.8857">committedPositions(partitions): stream positions</text></g></a><!--class InDataOffsetBatchStorage--><a href="../com/adform/streamloader/sink/batch/storage/InDataOffsetBatchStorage.html" target="_top" title="InDataOffsetBatchStorage" xlink:actuate="onRequest" xlink:href="../com/adform/streamloader/sink/batch/storage/InDataOffsetBatchStorage.html" xlink:show="new" xlink:title="InDataOffsetBatchStorage" xlink:type="simple"><g id="elem_InDataOffsetBatchStorage"><rect codeLine="49" fill="#F1F1F1" height="56.2969" id="InDataOffsetBatchStorage" rx="2.5" ry="2.5" style="stroke:#181818;stroke-width:0.5;" width="215.7227" x="405" y="627.5"/><ellipse cx="420" cy="643.5" fill="#A9DCDF" rx="11" ry="11" style="stroke:#181818;stroke-width:1.0;"/><path d="M420.1094,638.8438 L418.9531,643.9219 L421.2813,643.9219 L420.1094,638.8438 Z M418.625,636.6094 L421.6094,636.6094 L424.9688,649 L422.5156,649 L421.75,645.9375 L418.4688,645.9375 L417.7188,649 L415.2813,649 L418.625,636.6094 Z " fill="#000000"/><text fill="#000000" font-family="sans-serif" font-size="14" font-style="italic" lengthAdjust="spacing" textLength="183.7227" x="434" y="648.3467">InDataOffsetBatchStorage</text><line style="stroke:#181818;stroke-width:0.5;" x1="406" x2="619.7227" y1="659.5" y2="659.5"/><text fill="#000000" font-family="sans-serif" font-size="14" lengthAdjust="spacing" textLength="126.4102" x="411" y="676.4951">storeBatch(batch)</text></g></a><!--class TwoPhaseCommitBatchStorage--><a href="../com/adform/streamloader/sink/batch/storage/TwoPhaseCommitBatchStorage.html" target="_top" title="TwoPhaseCommitBatchStorage" xlink:actuate="onRequest" xlink:href="../com/adform/streamloader/sink/batch/storage/TwoPhaseCommitBatchStorage.html" xlink:show="new" xlink:title="TwoPhaseCommitBatchStorage" xlink:type="simple"><g id="elem_TwoPhaseCommitBatchStorage"><rect codeLine="53" fill="#F1F1F1" height="72.5938" id="TwoPhaseCommitBatchStorage" rx="2.5" ry="2.5" style="stroke:#181818;stroke-width:0.5;" width="252.3838" x="656" y="619"/><ellipse cx="671" cy="635" fill="#A9DCDF" rx="11" ry="11" style="stroke:#181818;stroke-width:1.0;"/><path d="M671.1094,630.3438 L669.9531,635.4219 L672.2813,635.4219 L671.1094,630.3438 Z M669.625,628.1094 L672.6094,628.1094 L675.9688,640.5 L673.5156,640.5 L672.75,637.4375 L669.4688,637.4375 L668.7188,640.5 L666.2813,640.5 L669.625,628.1094 Z " fill="#000000"/><text fill="#000000" font-family="sans-serif" font-size="14" font-style="italic" lengthAdjust="spacing" textLength="220.3838" x="685" y="639.8467">TwoPhaseCommitBatchStorage</text><line style="stroke:#181818;stroke-width:0.5;" x1="657" x2="907.3838" y1="651" y2="651"/><text fill="#000000" font-family="sans-serif" font-size="14" lengthAdjust="spacing" textLength="190.6201" x="662" y="667.9951">stageBatch(batch): staging</text><text fill="#000000" font-family="sans-serif" font-size="14" lengthAdjust="spacing" textLength="138.7832" x="662" y="684.292">storeBatch(staging)</text></g></a><!--class FileRecordBatcher--><a href="../com/adform/streamloader/sink/file/FileRecordBatcher.html" target="_top" title="FileRecordBatcher" xlink:actuate="onRequest" xlink:href="../com/adform/streamloader/sink/file/FileRecordBatcher.html" xlink:show="new" xlink:title="FileRecordBatcher" xlink:type="simple"><g id="elem_FileRecordBatcher"><rect codeLine="58" fill="#F1F1F1" height="32" id="FileRecordBatcher" rx="2.5" ry="2.5" style="stroke:#181818;stroke-width:0.5;" width="160.3037" x="180" y="639.5"/><ellipse cx="195" cy="655.5" fill="#ADD1B2" rx="11" ry="11" style="stroke:#181818;stroke-width:1.0;"/><path d="M197.9688,661.1406 Q197.3906,661.4375 196.75,661.5781 Q196.1094,661.7344 195.4063,661.7344 Q192.9063,661.7344 191.5781,660.0938 Q190.2656,658.4375 190.2656,655.3125 Q190.2656,652.1875 191.5781,650.5313 Q192.9063,648.875 195.4063,648.875 Q196.1094,648.875 196.75,649.0313 Q197.4063,649.1875 197.9688,649.4844 L197.9688,652.2031 Q197.3438,651.625 196.75,651.3594 Q196.1563,651.0781 195.5313,651.0781 Q194.1875,651.0781 193.5,652.1563 Q192.8125,653.2188 192.8125,655.3125 Q192.8125,657.4063 193.5,658.4844 Q194.1875,659.5469 195.5313,659.5469 Q196.1563,659.5469 196.75,659.2813 Q197.3438,659 197.9688,658.4219 L197.9688,661.1406 Z " fill="#000000"/><text fill="#000000" font-family="sans-serif" font-size="14" lengthAdjust="spacing" textLength="128.3037" x="209" y="660.3467">FileRecordBatcher</text></g></a><!--class FileBuilder--><a href="../com/adform/streamloader/sink/file/FileBuilder.html" target="_top" title="FileBuilder" xlink:actuate="onRequest" xlink:href="../com/adform/streamloader/sink/file/FileBuilder.html" xlink:show="new" xlink:title="FileBuilder" xlink:type="simple"><g id="elem_FileBuilder"><rect codeLine="63" fill="#F1F1F1" height="72.5938" id="FileBuilder" rx="2.5" ry="2.5" style="stroke:#181818;stroke-width:0.5;" width="148.6094" x="78.5" y="752"/><ellipse cx="112.6931" cy="768" fill="#B4A7E5" rx="11" ry="11" style="stroke:#181818;stroke-width:1.0;"/><path d="M108.615,763.7656 L108.615,761.6094 L116.0056,761.6094 L116.0056,763.7656 L113.5369,763.7656 L113.5369,771.8438 L116.0056,771.8438 L116.0056,774 L108.615,774 L108.615,771.8438 L111.0837,771.8438 L111.0837,763.7656 L108.615,763.7656 Z " fill="#000000"/><text fill="#000000" font-family="sans-serif" font-size="14" font-style="italic" lengthAdjust="spacing" textLength="73.958" x="130.9583" y="772.8467">FileBuilder</text><line style="stroke:#181818;stroke-width:0.5;" x1="79.5" x2="226.1094" y1="784" y2="784"/><text fill="#000000" font-family="sans-serif" font-size="14" lengthAdjust="spacing" textLength="91.3965" x="84.5" y="800.9951">write(record)</text><text fill="#000000" font-family="sans-serif" font-size="14" lengthAdjust="spacing" textLength="136.6094" x="84.5" y="817.292">build(): Option[File]</text></g></a><!--class CsvFileBuilder--><a href="../com/adform/streamloader/sink/encoding/csv/CsvFileBuilder.html" target="_top" title="CsvFileBuilder" xlink:actuate="onRequest" xlink:href="../com/adform/streamloader/sink/encoding/csv/CsvFileBuilder.html" xlink:show="new" xlink:title="CsvFileBuilder" xlink:type="simple"><g id="elem_CsvFileBuilder"><rect codeLine="68" fill="#F1F1F1" height="32" id="CsvFileBuilder" rx="2.5" ry="2.5" style="stroke:#181818;stroke-width:0.5;" width="131.3125" x="87.5" y="885"/><ellipse cx="102.5" cy="901" fill="#ADD1B2" rx="11" ry="11" style="stroke:#181818;stroke-width:1.0;"/><path d="M105.4688,906.6406 Q104.8906,906.9375 104.25,907.0781 Q103.6094,907.2344 102.9063,907.2344 Q100.4063,907.2344 99.0781,905.5938 Q97.7656,903.9375 97.7656,900.8125 Q97.7656,897.6875 99.0781,896.0313 Q100.4063,894.375 102.9063,894.375 Q103.6094,894.375 104.25,894.5313 Q104.9063,894.6875 105.4688,894.9844 L105.4688,897.7031 Q104.8438,897.125 104.25,896.8594 Q103.6563,896.5781 103.0313,896.5781 Q101.6875,896.5781 101,897.6563 Q100.3125,898.7188 100.3125,900.8125 Q100.3125,902.9063 101,903.9844 Q101.6875,905.0469 103.0313,905.0469 Q103.6563,905.0469 104.25,904.7813 Q104.8438,904.5 105.4688,903.9219 L105.4688,906.6406 Z " fill="#000000"/><text fill="#000000" font-family="sans-serif" font-size="14" lengthAdjust="spacing" textLength="99.3125" x="116.5" y="905.8467">CsvFileBuilder</text></g></a><!--class RecordFormatter--><a href="../com/adform/streamloader/sink/batch/RecordFormatter.html" target="_top" title="RecordFormatter" xlink:actuate="onRequest" xlink:href="../com/adform/streamloader/sink/batch/RecordFormatter.html" xlink:show="new" xlink:title="RecordFormatter" xlink:type="simple"><g id="elem_RecordFormatter"><rect codeLine="75" fill="#F1F1F1" height="56.2969" id="RecordFormatter" rx="2.5" ry="2.5" style="stroke:#181818;stroke-width:0.5;" width="210.8779" x="262.5" y="760.5"/><ellipse cx="304.362" cy="776.5" fill="#ADD1B2" rx="11" ry="11" style="stroke:#181818;stroke-width:1.0;"/><path d="M307.3308,782.1406 Q306.7526,782.4375 306.112,782.5781 Q305.4714,782.7344 304.7683,782.7344 Q302.2683,782.7344 300.9401,781.0938 Q299.6276,779.4375 299.6276,776.3125 Q299.6276,773.1875 300.9401,771.5313 Q302.2683,769.875 304.7683,769.875 Q305.4714,769.875 306.112,770.0313 Q306.7683,770.1875 307.3308,770.4844 L307.3308,773.2031 Q306.7058,772.625 306.112,772.3594 Q305.5183,772.0781 304.8933,772.0781 Q303.5495,772.0781 302.862,773.1563 Q302.1745,774.2188 302.1745,776.3125 Q302.1745,778.4063 302.862,779.4844 Q303.5495,780.5469 304.8933,780.5469 Q305.5183,780.5469 306.112,780.2813 Q306.7058,780 307.3308,779.4219 L307.3308,782.1406 Z " fill="#000000"/><text fill="#000000" font-family="sans-serif" font-size="14" lengthAdjust="spacing" textLength="119.1846" x="324.3313" y="781.3467">RecordFormatter</text><line style="stroke:#181818;stroke-width:0.5;" x1="263.5" x2="472.3779" y1="792.5" y2="792.5"/><text fill="#000000" font-family="sans-serif" font-size="14" lengthAdjust="spacing" textLength="198.8779" x="268.5" y="809.4951">format(record): Seq[Record]</text></g></a><!--reverse link StreamLoader to KafkaSource--><g id="link_StreamLoader_KafkaSource"><path codeLine="14" d="M198.9914,89.0094 C169.7414,119.2794 136.84,153.32 110.26,180.82 " fill="none" id="StreamLoader-backto-KafkaSource" style="stroke:#181818;stroke-width:1.0;"/><polygon fill="#181818" points="207.33,80.38,200.2842,81.9152,198.9914,89.0094,206.0372,87.4743,207.33,80.38" style="stroke:#181818;stroke-width:1.0;"/></g><!--reverse link StreamLoader to Sink--><g id="link_StreamLoader_Sink"><path codeLine="15" d="M285.2564,88.9825 C302.2664,106.4725 314.92,119.49 334.81,139.94 " fill="none" id="StreamLoader-backto-Sink" style="stroke:#181818;stroke-width:1.0;"/><polygon fill="#181818" points="276.89,80.38,278.2057,87.4701,285.2564,88.9825,283.9407,81.8924,276.89,80.38" style="stroke:#181818;stroke-width:1.0;"/></g><!--reverse link Sink to RecordBatchingSink--><g id="link_Sink_RecordBatchingSink"><path codeLine="26" d="M401,296.44 C401,317.36 401,321.18 401,337.67 " fill="none" id="Sink-backto-RecordBatchingSink" style="stroke:#181818;stroke-width:1.0;"/><polygon fill="none" points="401,278.44,395,296.44,407,296.44,401,278.44" style="stroke:#181818;stroke-width:1.0;"/></g><!--reverse link RecordBatchingSink to RecordBatcher--><g id="link_RecordBatchingSink_RecordBatcher"><path codeLine="43" d="M364.9188,402.4387 C340.2288,426.6887 312.74,453.69 287.93,478.06 " fill="none" id="RecordBatchingSink-backto-RecordBatcher" style="stroke:#181818;stroke-width:1.0;"/><polygon fill="#181818" points="373.48,394.03,366.3965,395.3806,364.9188,402.4387,372.0023,401.0881,373.48,394.03" style="stroke:#181818;stroke-width:1.0;"/></g><!--reverse link RecordBatchingSink to RecordBatchStorage--><g id="link_RecordBatchingSink_RecordBatchStorage"><path codeLine="44" d="M437.3081,402.4112 C454.7381,419.4212 469.21,433.53 490.06,453.86 " fill="none" id="RecordBatchingSink-backto-RecordBatchStorage" style="stroke:#181818;stroke-width:1.0;"/><polygon fill="#181818" points="428.72,394.03,430.2203,401.0833,437.3081,402.4112,435.8078,395.3579,428.72,394.03" style="stroke:#181818;stroke-width:1.0;"/></g><!--reverse link RecordBatchStorage to InDataOffsetBatchStorage--><g id="link_RecordBatchStorage_InDataOffsetBatchStorage"><path codeLine="46" d="M528.8206,576.9664 C524.1306,599.9464 522.41,608.39 518.52,627.43 " fill="none" id="RecordBatchStorage-backto-InDataOffsetBatchStorage" style="stroke:#181818;stroke-width:1.0;"/><polygon fill="none" points="532.42,559.33,522.9418,575.7666,534.6994,578.1663,532.42,559.33" style="stroke:#181818;stroke-width:1.0;"/></g><!--reverse link RecordBatchStorage to TwoPhaseCommitBatchStorage--><g id="link_RecordBatchStorage_TwoPhaseCommitBatchStorage"><path codeLine="47" d="M642.2617,568.5508 C674.4017,588.3208 695,600.99 724.17,618.93 " fill="none" id="RecordBatchStorage-backto-TwoPhaseCommitBatchStorage" style="stroke:#181818;stroke-width:1.0;"/><polygon fill="none" points="626.93,559.12,639.118,573.6614,645.4053,563.4403,626.93,559.12" style="stroke:#181818;stroke-width:1.0;"/></g><!--reverse link RecordBatcher to FileRecordBatcher--><g id="link_RecordBatcher_FileRecordBatcher"><path codeLine="61" d="M260,552.81 C260,583.69 260,614.88 260,639.47 " fill="none" id="RecordBatcher-backto-FileRecordBatcher" style="stroke:#181818;stroke-width:1.0;"/><polygon fill="none" points="260,534.81,254,552.81,266,552.81,260,534.81" style="stroke:#181818;stroke-width:1.0;"/></g><!--reverse link FileBuilder to CsvFileBuilder--><g id="link_FileBuilder_CsvFileBuilder"><path codeLine="70" d="M153,843.07 C153,863.26 153,869.48 153,884.81 " fill="none" id="FileBuilder-backto-CsvFileBuilder" style="stroke:#181818;stroke-width:1.0;"/><polygon fill="none" points="153,825.07,147,843.07,159,843.07,153,825.07" style="stroke:#181818;stroke-width:1.0;"/></g><!--reverse link FileRecordBatcher to FileBuilder--><g id="link_FileRecordBatcher_FileBuilder"><path codeLine="72" d="M240.1387,680.8236 C224.2187,700.3136 203.53,725.63 182,751.99 " fill="none" id="FileRecordBatcher-backto-FileBuilder" style="stroke:#181818;stroke-width:1.0;"/><polygon fill="#181818" points="247.73,671.53,240.8365,673.6464,240.1387,680.8236,247.0322,678.7073,247.73,671.53" style="stroke:#181818;stroke-width:1.0;"/></g><!--reverse link FileRecordBatcher to RecordFormatter--><g id="link_FileRecordBatcher_RecordFormatter"><path codeLine="73" d="M280.0233,680.7892 C297.8633,702.4292 323.45,733.46 345.64,760.38 " fill="none" id="FileRecordBatcher-backto-RecordFormatter" style="stroke:#181818;stroke-width:1.0;"/><polygon fill="#181818" points="272.39,671.53,273.1202,678.704,280.0233,680.7892,279.293,673.6152,272.39,671.53" style="stroke:#181818;stroke-width:1.0;"/></g><!--SRC=[dLLDSvim4BtpAtGadiRSFMqFSIUTJZiJJvsR9mS1Ywq192h9Tjiq_xqhYGyfcCRq1EpdsxTFGfMCDrJIcgGqA_TI77c-5fMGH4lA5Rg0woWwi1m8r8t-HMgeKv0gYhAAAaMsMWAjlmcQWoIxtNAPPA9EQ5u8MIVAEYlhJFp8vK7NrRDlUNbw8iyHKPfA7T-O5z7WywNhyvKM9TsAeypWtssKZKcyUDVCCxIzI2EgAhvPkTf4GYPahapBOAZ5xQtVVUpSCbv64UCQP44Hdlb-0oD692QivG7VEaoCCyrenNv3N9gcQu5rVsfaX20DRCytI1262AxYfd_58R1NpRI6dBXME9roJaoLS18b_5VgMJ8DiIF7e3W0fgP0xPP8LWa5RazsxFT_a93lDlYEwkp0-DxHuxOuzbn1L6h2at6g8szixzVRpVWPPTsWSqKUHSEodWRouQFHBteC_c61NictH7qPO2VmmDJ1ud2sbhiZgx248-zYywqMakxXQWJAnIVZ4YCuhVqArPdDdonCqWh55eXjotT458K2hGOlocZJoIUKsKXSEFS5GIn21O6y8gWT9wZNiMSb-OL_efe-MB11nbJ2urbi3bJ1UXYvRq9J78LccZXHJzMUlRUfGcvxKzvkXwOAUBknkde5TNggsM2dIpcuq_u1C7xuW5VMP8vZC4rhz7u6zwo2kOUqm9nabEYmZimEOgXFx6ALCGhsJwznjWTx3gOsPK3J6ZggNb_2gN6RNzT3OuxIpgGy3VoirMaU4E2Po97Z95Ed9Cnsc48RmeeYluCb9enn0I5_YvQ-BkHoXBFS8rAAjuaC_nszUUQztEVvLs5lx7WkhA4ZUaMsy6FdGWsxVm40]--></g></svg>